<?xml version="1.0" standalone="no"?>
<!DOCTYPE svg PUBLIC "-//W3C//DTD SVG 1.1//EN" "http://www.w3.org/Graphics/SVG/1.1/DTD/svg11.dtd" >
<!--
2013-9-30: Created.
-->
<svg>
<metadata>
Created by iconfont
</metadata>
<defs>

<font id="iconfont" horiz-adv-x="1024" >
  <font-face
    font-family="iconfont"
    font-weight="500"
    font-stretch="normal"
    units-per-em="1024"
    ascent="896"
    descent="-128"
  />
    <missing-glyph />
    
    <glyph glyph-name="x" unicode="x" horiz-adv-x="1001"
d="M281 543q-27 -1 -53 -1h-83q-18 0 -36.5 -6t-32.5 -18.5t-23 -32t-9 -45.5v-76h912v41q0 16 -0.5 30t-0.5 18q0 13 -5 29t-17 29.5t-31.5 22.5t-49.5 9h-133v-97h-438v97zM955 310v-52q0 -23 0.5 -52t0.5 -58t-10.5 -47.5t-26 -30t-33 -16t-31.5 -4.5q-14 -1 -29.5 -0.5
t-29.5 0.5h-32l-45 128h-439l-44 -128h-29h-34q-20 0 -45 1q-25 0 -41 9.5t-25.5 23t-13.5 29.5t-4 30v167h911zM163 247q-12 0 -21 -8.5t-9 -21.5t9 -21.5t21 -8.5q13 0 22 8.5t9 21.5t-9 21.5t-22 8.5zM316 123q-8 -26 -14 -48q-5 -19 -10.5 -37t-7.5 -25t-3 -15t1 -14.5
t9.5 -10.5t21.5 -4h37h67h81h80h64h36q23 0 34 12t2 38q-5 13 -9.5 30.5t-9.5 34.5q-5 19 -11 39h-368zM336 498v228q0 11 2.5 23t10 21.5t20.5 15.5t34 6h188q31 0 51.5 -14.5t20.5 -52.5v-227h-327z" />
    

    
    <glyph glyph-name="manage" unicode="&#58903;" d="M38.4 64l454.4-211.2 0 473.6-454.4 192-0-454.4zM179.2 339.2l179.2-83.2v-64l-179.2 83.2v64zM531.2 326.4v-480l454.4 211.2v460.8l-454.4-192zM512 748.8l-473.6-198.4 473.6-198.4 473.6 198.4-473.6 198.4z"  horiz-adv-x="1024" />

    
    <glyph glyph-name="filter" unicode="&#59093;" d="M911.428571 643.428571q9.714286-23.428571-8-40l-281.714286-281.714286 0-424q0-24-22.285714-33.714286-7.428571-2.857143-14.285714-2.857143-15.428571 0-25.714286 10.857143l-146.285714 146.285714q-10.857143 10.857143-10.857143 25.714286l0 277.714286-281.714286 281.714286q-17.714286 16.571429-8 40 9.714286 22.285714 33.714286 22.285714l731.428571 0q24 0 33.714286-22.285714z"  horiz-adv-x="1024" />

    
    <glyph glyph-name="phone" unicode="&#58948;" d="M829.440327 740.85873c0-294.624181 0-589.249385 0-883.873566-0.381693-2.991124-0.845251-5.973038-1.130753-8.973372-1.487887-15.653515-6.522554-29.77821-18.141172-40.866756-14.597463-13.931291-32.576953-19.098987-52.240805-19.105127-163.274644-0.056282-326.548264-0.041956-489.822908 0.010233-5.732561 0.002047-11.516288 0.242524-17.188474 1.019213-26.943652 3.687996-45.072545 19.837814-50.735521 46.340421-2.036379 9.534144-2.323928 19.580964-2.325975 29.393447-0.047072 287.211351 0.035816 574.423725 0.148379 861.635075 0.00307 7.712659 0.143263 15.468296 0.946558 23.127743 1.597381 15.20633 6.925736 28.944216 18.043958 39.871079 14.953573 14.697747 33.498952 20.351514 53.947679 20.3597 161.118538 0.066515 322.236052 0.044002 483.356636 0.001023 5.196349-0.001023 10.426467-0.246617 15.584953-0.854461 29.665647-3.497661 50.316989-22.543436 56.394405-51.855018C827.397808 751.692473 828.388369 746.26895 829.440327 740.85873zM265.469676-0.481585c164.981519 0 329.625346 0 494.565932 0 0 234.988965 0 469.660706 0 704.585203-165.007101 0-329.653999 0-494.565932 0C265.469676 469.111582 265.469676 234.39891 265.469676-0.481585zM442.732915 774.598158c0-11.991102 0-23.382547 0-34.778084 46.827515 0 93.245707 0 139.925866 0 0 11.70867 0 23.088858 0 34.778084C535.893688 774.598158 489.469356 774.598158 442.732915 774.598158zM477.573421-106.442896c0.034792-19.431561 15.916505-35.406394 35.184337-35.388998 19.142989 0.017396 35.308157 16.263405 35.279504 35.45449-0.029676 19.190061-16.250102 35.441187-35.340903 35.406394C493.452064-71.006825 477.538629-87.077849 477.573421-106.442896zM407.286612 757.087343c0.029676 9.792017-7.479345 17.47807-17.247826 17.655102-9.975189 0.180102-17.854647-7.55814-17.873066-17.552771-0.017396-9.767458 7.55814-17.530258 17.228383-17.654079C399.391804 739.406658 407.255912 747.121364 407.286612 757.087343z"  horiz-adv-x="1024" />

    
    <glyph glyph-name="new" unicode="&#58906;" d="M900.242372 92.310797c32.878828 61.966307 51.503001 132.652206 51.503001 207.689203 0 245.076718-198.673875 443.751616-443.751616 443.751616S64.24214 545.076718 64.24214 300 262.917038-143.751616 507.993756-143.751616c104.953354 0 201.396893 36.435841 277.371238 97.348142l174.392866-25.923416L900.242372 92.310797zM373.61114 175.360282l-4.733814 0L228.652654 335.998889l0-160.637584-21.89159 0L206.761064 387.769996l4.733814 0 141.112901-162.708755L352.60778 387.769996l21.004383 0L373.612163 175.360282zM547.56296 366.765613l-100.583836 0 0-66.267263 99.69663 0 0-20.708648-99.69663 0 0-83.425038 99.69663 0 0-21.004383L425.679006 175.360282 425.679006 387.769996l121.883955 0L547.56296 366.765613zM767.367085 170.03602l-4.14132 0-63.013149 165.962869L636.016525 170.03602l-3.845585 0-60.054771 217.733976 21.89159 0 43.191708-158.2717 60.941977 158.2717 4.14132 0 60.350506-158.2717 44.078914 158.2717 21.595854 0L767.367085 170.03602z"  horiz-adv-x="1024" />

    
    <glyph glyph-name="photo" unicode="&#58915;" d="M1158.345 594.563h-189.748l-113.586 114.756c0 0-0.556 0.556-0.848 0.556l-0.556 0.555c-16.869 16.869-39.645 27.57-65.52 27.57h-236.146c-27.541 0-52.012-11.812-69.145-30.669v-0.293l-111.042-112.475h-193.987c-52.276 0-94.435-41.077-94.435-93.382v-568.395c0-52.334 42.159-94.786 94.435-94.786h980.577c52.013 0 94.465 42.452 94.465 94.786v568.395c0 52.305-42.452 93.382-94.465 93.382zM668.071-19.996c-143.115 0-259.77 117.007-259.77 260.443 0 143.728 116.656 260.443 259.77 260.443 143.378 0 259.77-116.713 259.77-260.443 0-143.437-116.392-260.443-259.77-260.443zM1140.658 444.082c-21.664 0-39.353 17.718-39.353 39.645s17.688 39.645 39.353 39.645c21.635 0 39.353-17.718 39.353-39.645 0-21.928-17.718-39.645-39.353-39.645zM668.071 437.328c-108.499 0-196.208-88.032-196.208-196.882 0-108.556 87.711-196.882 196.208-196.882 108.234 0 196.208 88.032 196.208 196.882s-87.974 196.882-196.208 196.882z"  horiz-adv-x="1331" />

    
    <glyph glyph-name="jishigoutong" unicode="&#58921;" d="M425.302429 468.015486c23.883967 0 43.272549 18.754133 43.272549 41.919738 0 23.14207-19.389606 41.928948-43.272549 41.928948-23.889083 0-43.279712-18.787902-43.279712-41.928948C382.022717 486.774735 401.414369 468.015486 425.302429 468.015486L425.302429 468.015486 425.302429 468.015486zM598.402859 468.015486c23.889083 0 43.276642 18.754133 43.276642 41.919738 0 23.14207-19.387559 41.928948-43.276642 41.928948-23.889083 0-43.272549-18.787902-43.272549-41.928948C555.13031 486.774735 574.513776 468.015486 598.402859 468.015486L598.402859 468.015486 598.402859 468.015486zM342.670453 195.884598c22.447245-3.529383 73.426313-7.357572 97.054453-7.357572 207.150944 0 346.209046 149.332097 346.209046 324.909951 0 175.572738-173.768649 317.918723-346.209046 317.918723-207.436446 0-375.058095-142.347009-375.058095-317.918723 0-101.70538 40.013319-188.0714 115.402333-250.259764l0-158.495804L342.670453 195.884598 342.670453 195.884598 342.670453 195.884598zM122.367979 509.935224c0 146.658198 137.128147 265.522376 317.356928 265.522376 143.475715 0 288.50788-118.864178 288.50788-265.522376 0-146.637732-113.237017-265.513166-288.50788-265.513166-25.76378 0-79.512938 2.856048-103.487979 7.684006l-98.464569-63.580061L237.772358 287.579997C167.401638 342.89072 122.367979 416.788777 122.367979 509.935224L122.367979 509.935224 122.367979 509.935224zM842.161558 575.95894c0.547469-8.023744 1.475608-15.960507 1.475608-24.093744 0-17.778922-1.763157-35.186384-4.360308-52.378951 38.832424-44.049239 62.058404-98.2947 62.058404-157.245324 0-93.146447-57.466829-174.98536-144.254451-222.35932l0-99.0499-98.466616 63.586201c-23.975041-4.842285-48.872081-7.688099-74.638931-7.688099-74.718749 0-114.415866 21.742187-168.656211 57.908898-15.722076-1.222851-31.621185-2.015913-47.719838-2.015913-11.483542 0-22.735817 0.821715-34.044374 1.432629 68.665893-65.066925 139.321092-106.238626 250.420423-106.238626 23.633257 0 46.680159 2.064009 69.101821 5.621021l161.707962-96.452749L814.785048 95.511563c87.676875 58.190307 144.251382 148.519592 144.251382 250.254647C959.035406 436.429093 914.032446 518.016273 842.161558 575.95894L842.161558 575.95894 842.161558 575.95894zM252.195859 468.015486c23.889083 0 43.274596 18.754133 43.274596 41.919738 0 23.14207-19.385513 41.928948-43.274596 41.928948s-43.276642-18.787902-43.276642-41.928948C208.919217 486.774735 228.306776 468.015486 252.195859 468.015486L252.195859 468.015486 252.195859 468.015486zM252.195859 468.015486"  horiz-adv-x="1024" />

    
    <glyph glyph-name="iconfonttiquliuliang1" unicode="&#58916;" d="M1073.092923 406.004433C1057.67049 406.004433 1045.168805 393.473111 1045.168805 378.017418L1045.168805-120.059774C1045.168805-139.89167 1029.070769-156.025971 1009.283442-156.025971L91.739495-156.025971C71.949218-156.025971 55.84823-139.89167 55.84823-120.059774L55.84823 378.017418C55.84823 393.473111 43.346546 406.004433 27.924115 406.004433 12.501684 406.004433 0 393.473111 0 378.017418L0-120.059774C0-170.755745 41.153035-212 91.73802-212L1009.283442-212C1059.865478-212 1101.017037-170.757223 1101.017037-120.059774L1101.017037 378.017418C1101.017037 393.473111 1088.515351 406.004433 1073.092923 406.004433L1073.092923 406.004433ZM278.037451 496.673331C285.1151 496.673331 292.197175 499.353758 297.637435 504.726434L511.942116 716.417965 511.942116 117.118853C511.942116 101.661683 524.443798 89.131839 539.86623 89.131839 555.288659 89.131839 567.790344 101.661683 567.790344 117.118853L567.790344 719.166397 782.095021 507.511832C787.535281 502.139152 794.61441 499.460206 801.69353 499.460206 808.90837 499.460206 816.120253 502.245601 821.584116 507.803085 832.408584 518.813086 832.278772 536.532279 821.294994 547.38113L561.497462 803.964243C555.894937 809.498073 548.55029 812.157798 541.261698 811.992214 533.965729 812.163714 526.613709 809.502507 521.00528 803.962766L258.434515 544.594255C247.450735 533.743927 247.322399 516.024734 258.148342 505.014733 263.612204 499.458725 270.82409 496.673331 278.037451 496.673331L278.037451 496.673331Z"  horiz-adv-x="1103" />

    
    <glyph glyph-name="communicatesolid" unicode="&#58888;" d="M512.016 837.695c-272.839 0-494.93-203.543-494.93-453.682 0-86.614 26.798-170.309 77.147-242.931l-75.496-182.285c-3.283-7.626-1.433-16.492 4.333-22.467 3.934-3.924 9.282-5.983 14.65-5.983 2.666 0 5.366 0.416 7.815 1.425l188.292 77.33c82.28-51.34 178.16-78.756 278.19-78.756 272.822 0 494.895 203.525 494.895 453.664s-222.073 453.683-494.895 453.683zM818.604 387.521c0-47.181-38.266-85.422-85.43-85.422-47.148 0-85.397 38.241-85.397 85.422 0 47.156 38.249 85.405 85.397 85.405 47.164 0 85.43-38.249 85.43-85.405zM365.273 387.521c0-47.223-38.199-85.422-85.413-85.422-47.215 0-85.43 38.199-85.43 85.422 0 47.199 38.215 85.405 85.43 85.405 47.214 0 85.413-38.207 85.413-85.405zM597.429 387.521c0-47.189-38.232-85.422-85.413-85.422-47.183 0-85.414 38.233-85.414 85.422 0 47.164 38.232 85.405 85.414 85.405 47.182 0 85.413-38.241 85.413-85.405z"  horiz-adv-x="1024" />

    
    <glyph glyph-name="tel" unicode="&#59735;" d="M938.073012 139.321583c0-159.029591-72.907528-158.708079-424.938686-158.708079-352.00587 0-424.909786-0.325125-424.909786 158.708079 0 173.569915 190.245227 519.878868 424.909786 519.878868C747.82056 659.200452 938.073012 312.887885 938.073012 139.321583L938.073012 139.321583zM514.380639 584.77206c-99.712298 0-180.545657-81.31021-180.545657-181.607733 0-100.315586 80.829747-181.607733 180.545657-181.607733 99.701461 0 180.527595 81.292147 180.527595 181.607733C694.908234 503.46185 614.0821 584.77206 514.380639 584.77206L514.380639 584.77206zM514.380639 584.77206M135.9746 451.087787C209.983941 570.278699 337.924335 697.431567 512.252875 697.431567c174.277965 0 310.530727-137.611063 372.28646-245.28893 31.912848-53.436139 93.195343-47.775347 119.9098 0 17.163 35.752939 70.808664 335.243858-492.199873 335.243858C-57.070317 786.624257 1.759289 477.946744 21.743653 452.139025 57.153404 397.991223 123.861878 425.597968 135.9746 451.087787L135.9746 451.087787zM135.9746 451.087787"  horiz-adv-x="1024" />

    
    <glyph glyph-name="help" unicode="&#58893;" d="M794 478c-3.2 9.4-3.2 18.6 0 28C794 496.6 794 487.4 794 478zM939.6 482.8c-1.8 2.4-0.8 5.2-1 7.8-1.6 20.2-1.2 40.4-5.4 60.4-8.2 38.6-22 75.2-41 110C842 752.6 768.4 817.8 672 857.8c-29.2 12-59.4 21.4-91.2 23.8-15.8 1.2-31.6 1-47.4 3.2-4 0-8 0-12 0-6.6-1.6-13.4-1.6-20 0-4 0-8 0-12 0-7-2-14.4-1.8-21.6-1.8-50 0.2-96-15-140.4-35.8C269.6 820 220.6 781.4 179.8 732.4c-36.6-44-62.8-93.6-80.4-148.2-12.8-40-14.2-80.8-14.8-122 0-3.2 0-6.4 0-9.6 0.2-27.8-0.6-56 5-83.2 20.4-97.6 69-179.2 145.4-243.2 72.4-60.8 156.8-93.4 251-100.2 12-0.8 14.8-3.2 14.6-15.2-0.8-40.4 3.4-80.6 2.2-120.8-0.2-3.4 0-6.6 0.4-10 0.4-3.6 1.4-6.4 5.2-7.8 8 1.2 16 2 23.4 5.2 16.8 7.4 33.4 15 50.2 22.2 16.2 7 32.4 14.4 43.2 29.2 3.8 5 8.2 9.6 12.4 14.4 22.2 25.2 44.8 50.2 67 75.4 27.8 31.8 56.6 62.8 83.8 95.2 27 32.2 58.6 60.4 79.2 98 12.4 22.4 26.8 43.8 37.4 67.2 15.4 33.6 27.4 68.4 31.2 105.6 1.6 14.8 1.2 29.6 3.4 44.2 0 5.4 0 10.6 0 16-1.6 9.4-1.6 18.6 0 28C939.6 476 939.6 479.4 939.6 482.8zM550 244.6c-0.8-32-28.8-56.2-64.4-56.2-40 0.2-68.2 31-62.2 68.2 4.8 30.6 39 52.6 73 47.4C528.8 299 550.8 274.8 550 244.6zM669 589c-6.6-48.8-34-84.2-70-115-14-12-28.2-23.2-41.6-35.8-18.2-17.2-26.4-37.8-25.6-62.6 0.2-4-0.2-8 0-12 0.4-5.8-1.6-8.6-7.8-8.6-25.6 0.2-51.4 0.2-77 0-4.6 0-7.6 1.2-7.4 6.8 0.2 19-0.4 38 2.8 56.8 6.4 37.2 29.4 63.2 57.2 86.4 15.4 12.8 30.6 25.6 43 41.6 11.4 14.6 17.8 31 17.4 49.8-0.6 30.2-21.4 51-54.4 54.2-45.4 4.4-85.4-9.2-121.6-35.8-2.2-1.6-4.2-3.4-6.4-4.8-2.2-1.4-4-4.8-6.6-3.4-3.4 1.6-1.8 5.4-1.8 8.2-0.2 14.6 0 29.4 0 44 0 14.6 0 29.4 0 44 0 4.6 0.6 8.4 5.4 10.8 72.4 36 147.2 45 222.8 12.6C652 702.6 677.2 649.4 669 589z"  horiz-adv-x="1024" />

    
    <glyph glyph-name="personal" unicode="&#58891;" d="M543.91999 144.26187 159.15686 144.26187 543.91999 144.26187ZM511.706311 624.107543m-207.872375 0a203.138 203.138 0 1 0 415.744749 0 203.138 203.138 0 1 0-415.744749 0ZM511.706311 416.235169c-229.609445 0-415.744749-186.135304-415.744749-415.744749 0-26.493397 21.47715-47.970548 47.970548-47.970548l735.547379 0 0 0c26.493397 0 47.970548 21.47715 47.970548 47.970548C927.45106 230.099864 741.315756 416.235169 511.706311 416.235169z"  horiz-adv-x="1024" />

    
    <glyph glyph-name="watch" unicode="&#58976;" d="M512 0c-384 0-512 384-512 384s128 384 512 384 512-384 512-384S896 0 512 0zM512 640C370.624 640 256 525.376 256 384s114.624-256 256-256 256 114.624 256 256S653.376 640 512 640zM512 256c-70.656 0-128 57.344-128 128 0 2.176 0.512 4.16 0.64 6.336C394.56 386.88 404.864 384 416 384 468.992 384 512 427.008 512 480c0 11.136-2.88 21.44-6.336 31.36C507.84 511.488 509.824 512 512 512c70.656 0 128-57.344 128-128S582.656 256 512 256z"  horiz-adv-x="1024" />

    
    <glyph glyph-name="qrcode" unicode="&#58928;" d="M384-32 192-32c-52.928 0-96 43.072-96 96l0 192c0 52.928 43.072 96 96 96l192 0c52.928 0 96-43.072 96-96l0-192C480 11.072 436.928-32 384-32zM192 288c-17.632 0-32-14.336-32-32l0-192c0-17.664 14.368-32 32-32l192 0c17.632 0 32 14.336 32 32l0 192c0 17.664-14.368 32-32 32L192 288zM736 0c-17.696 0-32 14.304-32 32l0 64c0 17.696 14.304 32 32 32s32-14.304 32-32l0-64C768 14.304 753.696 0 736 0zM864 0c-17.696 0-32 14.304-32 32l0 96c0 17.696 14.304 32 32 32s32-14.304 32-32l0-96C896 14.304 881.696 0 864 0zM864 224c-17.696 0-32 14.304-32 32l0 64c0 17.696 14.304 32 32 32s32-14.304 32-32l0-64C896 238.304 881.696 224 864 224zM736 160c-17.696 0-32 14.304-32 32l0 128c0 17.696 14.304 32 32 32s32-14.304 32-32l0-128C768 174.304 753.696 160 736 160zM608 0c-17.696 0-32 14.304-32 32l0 128c0 17.696 14.304 32 32 32s32-14.304 32-32l0-128C640 14.304 625.696 0 608 0zM608 256c-17.696 0-32 14.304-32 32l0 32c0 17.696 14.304 32 32 32s32-14.304 32-32l0-32C640 270.304 625.696 256 608 256zM320 96 256 96c-17.664 0-32 14.304-32 32l0 64c0 17.696 14.336 32 32 32l64 0c17.664 0 32-14.304 32-32l0-64C352 110.304 337.664 96 320 96zM384 416 192 416c-52.928 0-96 43.072-96 96L96 704c0 52.928 43.072 96 96 96l192 0c52.928 0 96-43.072 96-96l0-192C480 459.072 436.928 416 384 416zM192 736C174.368 736 160 721.632 160 704l0-192c0-17.632 14.368-32 32-32l192 0c17.632 0 32 14.368 32 32L416 704c0 17.632-14.368 32-32 32L192 736zM320 544 256 544c-17.664 0-32 14.336-32 32L224 640c0 17.664 14.336 32 32 32l64 0c17.664 0 32-14.336 32-32l0-64C352 558.336 337.664 544 320 544zM832 416l-192 0c-52.928 0-96 43.072-96 96L544 704c0 52.928 43.072 96 96 96l192 0c52.928 0 96-43.072 96-96l0-192C928 459.072 884.928 416 832 416zM640 736c-17.664 0-32-14.368-32-32l0-192c0-17.632 14.336-32 32-32l192 0c17.664 0 32 14.368 32 32L864 704c0 17.632-14.336 32-32 32L640 736zM768 544l-64 0c-17.696 0-32 14.336-32 32L672 640c0 17.664 14.304 32 32 32l64 0c17.696 0 32-14.336 32-32l0-64C800 558.336 785.696 544 768 544z"  horiz-adv-x="1024" />

    
    <glyph glyph-name="logout" unicode="&#59027;" d="M711.111111 668.444444l284.444444-284.444444-284.444444-284.444444 0 170.666667c0 0-248.376889 107.064889-455.111111-113.777778 0 138.752 164.522667 341.333333 455.111111 341.333333L711.111111 668.444444zM540.444444 896 85.333333 896C53.930667 896 28.444444 870.513778 28.444444 839.111111l0-910.222222c0-31.402667 25.486222-56.888889 56.888889-56.888889l568.888889 0 0 170.666667L540.444444 42.666667l0-56.888889L142.222222-14.222222 142.222222 782.222222l398.222222 0 0-56.888889 113.777778 0L654.222222 896 540.444444 896z"  horiz-adv-x="1024" />

    
    <glyph glyph-name="contactlist" unicode="&#58904;" d="M809.529347 278.931013c37.969776 23.892153 63.332421 66.059532 63.332421 114.13855 0 67.734684-50.195216 123.95001-115.336842 133.451408 0.024559-1.336438 0.050142-2.673899 0.050142-4.016477 0-72.664973-38.331004-136.394437-95.715969-172.503842 118.223588-38.269605 204.90274-147.283438 209.621205-276.950659l76.888158 0 0 15.258519C948.368462 177.32694 889.985774 252.886847 809.529347 278.931013zM359.440395 349.999628c-57.384965 36.109406-95.715969 99.839893-95.715969 172.503842 0 1.342578 0.024559 2.680039 0.050142 4.016477-65.141626-9.501398-115.336842-65.717747-115.336842-133.451408 0-48.079018 25.362644-90.246397 63.332421-114.13855-80.455403-26.044166-138.839115-101.604072-138.839115-190.622502l0-15.258519 76.888158 0C154.538679 202.71619 241.216807 311.731046 359.440395 349.999628zM620.809171 349.999628c57.384965 36.109406 95.716992 99.838869 95.716992 172.503842 0 112.406093-91.453898 203.859991-203.859991 203.859991-112.414279 0-203.867154-91.453898-203.867154-203.859991 0-72.233138 37.866423-135.65254 94.684476-171.875532-122.498962-38.82833-211.550137-153.544025-211.550137-288.725844l0-23.062252 638.711913 0 0 23.062252C830.644247 196.440254 742.405577 310.638155 620.809171 349.999628z"  horiz-adv-x="1024" />

    
    <glyph glyph-name="msg" unicode="&#58912;" d="M798.32 680h-573.441c-68.266 0-122.879-54.613-122.879-121.516v-350.89c0-66.902 55.98-121.516 122.879-121.516h573.441c68.266 0 122.879 53.25 122.879 120.152v352.254c-0 66.903-55.976 121.516-122.879 121.516zM821.531 249.922c-2.73-4.098-6.828-5.465-13.652-5.465-4.098 0-8.195 1.367-12.289 5.465l-150.188 150.183-122.879-117.417c-4.098-4.094-8.191-5.46-12.29-5.46-4.097 0-9.558 2.729-12.289 5.46l-122.878 117.417-150.187-150.183c-2.731-4.098-8.191-5.465-12.285-5.465-4.098 0-8.196 2.73-12.289 5.465-3.163 3.136-5.121 7.483-5.121 12.287 0 4.804 1.958 9.151 5.12 12.286l150.188 148.821-148.824 141.996c-3.161 3.137-5.118 7.484-5.118 12.288s1.957 9.15 5.117 12.286c3.138 3.164 7.485 5.122 12.29 5.122 4.805 0 9.152-1.958 12.288-5.12l285.356-270.337 282.621 270.336c3.137 3.163 7.484 5.121 12.289 5.121s9.152-1.958 12.288-5.12c3.162-3.138 5.119-7.485 5.119-12.289 0-4.804-1.957-9.15-5.117-12.286l-147.457-140.629 150.188-150.188c3.161-3.137 5.117-7.483 5.117-12.287 0-4.804-1.957-9.15-5.117-12.286z"  horiz-adv-x="1024" />

    
    <glyph glyph-name="identity" unicode="&#59124;" d="M905.846154 738.461538H687.261538s1.969231-13.784615 1.969231-19.692307c0-76.8-61.046154-137.846154-137.846154-137.846154h-118.153846c-76.8 0-137.846154 61.046154-137.846154 137.846154 0 5.907692 0 19.692308 1.969231 19.692307H118.153846c-43.323077 0-78.769231-35.446154-78.769231-78.76923v-590.769231c0-43.323077 35.446154-78.769231 78.769231-78.769231h787.692308c43.323077 0 78.769231 35.446154 78.769231 78.769231V659.692308c0 43.323077-35.446154 78.769231-78.769231 78.76923zM427.323077 147.692308H202.830769C177.230769 147.692308 157.538462 171.323077 157.538462 196.923077c0 39.384615 41.353846 61.046154 84.676923 78.769231 29.538462 11.815385 33.476923 23.630769 33.476923 37.415384 0 11.815385-7.876923 23.630769-17.723077 33.476923-17.723077 15.753846-27.569231 39.384615-27.569231 64.984616 0 49.230769 29.538462 90.584615 82.707692 90.584615s82.707692-41.353846 82.707693-90.584615c0-25.6-9.846154-49.230769-27.569231-64.984616-9.846154-9.846154-17.723077-21.661538-17.723077-33.476923 0-11.815385 3.938462-23.630769 33.476923-37.415384 43.323077-17.723077 84.676923-39.384615 84.676923-78.769231 3.938462-25.6-15.753846-49.230769-41.353846-49.230769zM866.461538 226.461538c0-11.815385-7.876923-19.692308-19.692307-19.692307H571.076923c-11.815385 0-19.692308 7.876923-19.692308 19.692307v39.384616c0 11.815385 7.876923 19.692308 19.692308 19.692308h275.692308c11.815385 0 19.692308-7.876923 19.692307-19.692308v-39.384616z m39.384616 157.538462c0-11.815385-7.876923-19.692308-19.692308-19.692308H571.076923c-11.815385 0-19.692308 7.876923-19.692308 19.692308v39.384615c0 11.815385 7.876923 19.692308 19.692308 19.692308h315.076923c11.815385 0 19.692308-7.876923 19.692308-19.692308v-39.384615zM433.230769 659.692308h118.153846c33.476923 0 59.076923 25.6 59.076923 59.076923s-25.6 59.076923-59.076923 59.076923h-118.153846c-33.476923 0-59.076923-25.6-59.076923-59.076923s25.6-59.076923 59.076923-59.076923z"  horiz-adv-x="1024" />

    
    <glyph glyph-name="sad" unicode="&#58947;" d="M486.400051-127.997952c-129.94534 0-252.057096 50.585499-343.960912 142.438115S0.001024 228.455735 0.001024 358.349875c0 129.94534 50.585499 252.057096 142.438115 343.960912S356.454711 844.800102 486.400051 844.800102c129.94534 0 252.057096-50.585499 343.960912-142.489315S972.799078 488.295215 972.799078 358.349875s-50.585499-252.057096-142.438115-343.909712A483.224634 483.224634 0 0 0 486.400051-127.997952z m0 921.598157C246.426131 793.600205 51.200922 598.374995 51.200922 358.401075S246.426131-76.798054 486.400051-76.798054s435.19913 195.22521 435.19913 435.199129S726.373971 793.600205 486.400051 793.600205zM332.800358 486.400819C290.458043 486.400819 256.000512 520.85835 256.000512 563.200666S290.458043 640.000512 332.800358 640.000512 409.600205 605.542981 409.600205 563.200666 375.142674 486.400819 332.800358 486.400819z m0 102.399795a25.599949 25.599949 0 1 1 0-51.199897 25.599949 25.599949 0 0 1 0 51.199897zM639.999744 486.400819c-42.342315 0-76.799846 34.457531-76.799846 76.799847S597.657429 640.000512 639.999744 640.000512s76.799846-34.457531 76.799846-76.799846S682.342059 486.400819 639.999744 486.400819z m0 102.399795a25.599949 25.599949 0 1 1 0-51.199897 25.599949 25.599949 0 0 1 0 51.199897zM281.549261 128.001536a25.599949 25.599949 0 0 0-20.428759 40.959918 284.108232 284.108232 0 0 0 97.331005 81.919836c39.83352 20.377559 82.892634 30.668739 127.948544 30.668739s88.115024-10.342379 127.948544-30.668739a284.108232 284.108232 0 0 0 97.331006-81.919836 25.599949 25.599949 0 0 0-40.908719-30.771138c-43.980712 58.572683-111.206178 92.159816-184.370831 92.159815s-140.338919-33.587133-184.370831-92.159815a25.497549 25.497549 0 0 0-20.479959-10.23998z"  horiz-adv-x="1024" />

    
    <glyph glyph-name="Happy" unicode="&#58965;" d="M797.5104 294.1184a19.968 19.968 0 0 0 4.6272-27.872c-4.3136-6.048-107.904-148.3776-276.2688-148.3776-168.3584 0-271.9424 142.3232-276.2816 148.3776a20 20 0 0 0 32.5376 23.2576c0.9472-1.3056 96.3008-131.6352 243.7376-131.6352s242.7968 130.3296 243.7504 131.6352a20.0128 20.0128 0 0 0 27.8976 4.6144z m208.3584 103.7504c0-264.6656-215.3344-480-480-480s-480 215.3344-480 480 215.3344 480 480 480 480-215.3344 480-480z m-40 0c0 242.6176-197.3824 440-440 440s-440-197.3824-440-440 197.3824-440 440-440 440 197.3824 440 440z m-280 0a60 60 0 0 1 60 60c0 33.1456-26.8608 60-60 60s-60-26.8544-60-60a60 60 0 0 1 60-60z m-320 0a60 60 0 0 1 60 60c0 33.1456-26.8608 60-60 60s-60-26.8544-60-60a60 60 0 0 1 60-60z"  horiz-adv-x="1024" />

    
    <glyph glyph-name="down" unicode="&#59002;" d="M226.742857 442.514286l-51.2-51.2 336.457143-351.085715 336.457143 351.085715-51.2 51.2L548.571429 186.514286V896H475.428571v-709.485714L226.742857 442.514286z m724.114286 299.885714c-21.942857 21.942857-7.314286 7.314286-36.571429 7.314286H694.857143v-73.142857h146.285714c14.628571 0 65.828571 7.314286 73.142857 0 7.314286-7.314286 0-7.314286 0-14.628572v-672.914286c0-14.628571-7.314286-21.942857-14.628571-29.257142-7.314286-7.314286-21.942857-14.628571-36.571429-14.628572H153.6c-14.628571 0-21.942857 7.314286-36.571429 14.628572 0 7.314286-7.314286 14.628571-7.314285 29.257142V676.571429c0 14.628571 7.314286 7.314286 14.628571 7.314285 7.314286 7.314286 43.885714-7.314286 58.514286-7.314285h146.285714V749.714286H182.857143c-29.257143 0-87.771429 14.628571-109.714286-7.314286-21.942857-21.942857-36.571429-51.2-36.571428-80.457143v-672.914286c0-29.257143 14.628571-58.514286 36.571428-80.457142 21.942857-21.942857 51.2-36.571429 80.457143-36.571429h716.8c29.257143 0 58.514286 14.628571 80.457143 29.257143 21.942857 21.942857 36.571429 51.2 36.571428 80.457143V676.571429c0 29.257143-14.628571 43.885714-36.571428 65.828571z"  horiz-adv-x="1024" />

    
    <glyph glyph-name="lock" unicode="&#58938;" d="M176.243515-63.472358V441.224306l55.456033 54.896284h6.939039c-3.805676 18.130939-6.435573 36.653805-6.435573 55.9595 0 154.503886 125.292588 279.796474 279.796474 279.796474 135.364991 0 248.235664-96.137571 274.144754-223.836975h-58.253752c-24.957415 96.361675-111.694895 167.877475-215.891002 167.877475S321.010643 704.400241 296.052205 608.038566h-7.890714v-111.918999h507.158738l52.434209-57.246819v-502.346129H176.243515z m615.552447 503.633449H232.203014v-447.673949h559.592948V440.161091z m-279.796474-55.9595c61.779042 0 111.918999-50.083675 111.918999-111.918999 0-41.297568-22.663162-76.999698-55.959499-96.361674v-127.4753H456.039989V175.920918c-33.295314 19.361977-55.959499 55.064107-55.9595 96.361674 0 61.835324 50.083675 111.918999 111.918999 111.918999z"  horiz-adv-x="1024" />

    
    <glyph glyph-name="operation" unicode="&#58989;" d="M506.821 530.286c-68.072 0-124.785-46.715-141.107-109.715h-329.143v-73.142h329.143c16.322-63 73.035-109.715 141.107-109.715s124.786 46.716 141.109 109.716h339.5v73.14h-339.5c-16.322 63-73.035 109.715-141.108 109.715zM506.821 310.857c-40.321 0-73.142 32.821-73.142 73.143s32.82 73.143 73.142 73.143 73.143-32.821 73.143-73.143-32.82-73.143-73.143-73.143zM334.321 201.143c-68.072 0-124.785-46.715-141.107-109.714h-156.643v-73.143h156.643c16.322-63 73.035-109.715 141.107-109.715s124.786 46.715 141.108 109.715h512v73.143h-512c-16.322 63-73.035 109.714-141.108 109.714zM334.321-18.286c-40.321 0-73.142 32.821-73.142 73.143s32.82 73.143 73.141 73.143 73.143-32.821 73.143-73.143-32.82-73.143-73.143-73.143zM475.429 749.714c-16.322 63-73.035 109.715-141.108 109.715s-124.785-46.715-141.107-109.715h-156.643v-73.143h156.643c16.322-63 73.035-109.714 141.107-109.714s124.786 46.715 141.108 109.714h512v73.143h-512zM334.32 640c-40.321 0-73.142 32.821-73.142 73.143s32.82 73.143 73.142 73.143 73.143-32.821 73.143-73.143-32.819-73.143-73.142-73.143z"  horiz-adv-x="1024" />

    
    <glyph glyph-name="offer" unicode="&#58969;" d="M512 832C264.6 832 64 631.4 64 384s200.6-448 448-448 448 200.6 448 448S759.4 832 512 832z m-79-161.1h158.3c27 0 45.5-27.1 35.8-52.2l-21.6-68.8c-5.7-14.8-20-24.6-35.8-24.6H454.6c-15.9 0-30.1 9.8-35.8 24.6l-21.6 68.8c-9.7 25.1 8.8 52.2 35.8 52.2z m240.1-453.6L536.7 106.7c-7.3-6.5-16.5-9.8-25.6-9.8-9.3 0-18.5 3.3-25.8 10L350.9 217.3c-11.3 10.3-15.5 26.4-10.5 40.9l79 206c5.3 15.5 19.9 26 36.3 26h112.9c16.4 0 31-10.4 36.3-26l78.9-205.8c5-14.6 0.8-30.8-10.7-41.1z"  horiz-adv-x="1024" />

    
    <glyph glyph-name="jia" unicode="&#59029;" d="M512-114.863998C236.873738-114.863998 13.804965 108.204775 13.804965 383.331037S236.873738 881.526072 512 881.526072s498.195035-223.068773 498.195035-498.195035-223.068773-498.195035-498.195035-498.195035z m0 934.115691C271.294928 819.251693 76.079344 624.036109 76.079344 383.331037S271.294928-52.589619 512-52.589619 947.920656 142.625965 947.920656 383.331037 752.705072 819.251693 512 819.251693z m186.823138-467.057846h-155.685948v-155.685948c0-17.14978-13.987409-31.13719-31.13719-31.13719S480.86281 179.358119 480.86281 196.507899v155.685948H325.176862c-17.14978 0-31.13719 13.987409-31.13719 31.13719s13.987409 31.13719 31.13719 31.13719h155.685948v155.685948c0 17.14978 13.987409 31.13719 31.13719 31.13719s31.13719-13.987409 31.13719-31.13719v-155.685948h155.685948c17.14978 0 31.13719-13.987409 31.13719-31.13719s-13.987409-31.13719-31.13719-31.13719z"  horiz-adv-x="1024" />

    
    <glyph glyph-name="xingzhuang" unicode="&#58885;" d="M183.513 710.512h51.784v-77.823h-51.784v77.969zM183.513 518.003h51.784v-77.969h-51.784v77.969zM183.513 325.567h51.784v-77.969h-51.784v77.896zM183.513 133.13h51.784v-78.262h-51.784v78.262zM776.767 518.003h51.858v-77.969h-51.858v77.969zM776.767 325.567h51.858v-77.969h-51.858v77.896zM776.767 133.13h51.858v-78.262h-51.858v78.262zM570.726 240.649c-1.862 14.61-2.924 31.514-2.924 48.666 0 7.658 0.212 15.266 0.63 22.82 4.84 13.621 13.668 25.885 25.184 34.863-7.736 8.069-4.603 23.219 0.214 37.598 10.045-0.485 26.774 8.745 45.242 13.749-28.213-6.827-25.343 2.139-24.831 11.73 0.809-0.571 1.607 5.19 1.607 11.137 0 7.851-1.392 15.378-3.941 22.346-3.605 4.428-5.998 10.525-6.376 17.162-0.794 7.255 3.229 45.435 3.448 52.164 0.195 2.252 0.307 4.872 0.307 7.518 0 10.392-1.719 20.382-4.887 29.703-6.73 11.547-16.936 21.182-29.228 27.221l-4.592-4.758-10.24 9.289c-15.682 7.668-34.123 12.152-53.613 12.152-21.042 0-40.863-5.227-58.236-14.453-33.63-10.499-55.354-49.995-40.213-119.846-0.371-9.278-2.846-17.9-6.958-25.508 0.71-0.342 0.609-2.762 0.609-5.206 0-18.713 5.91-36.045 15.966-50.232 3.71-1.331 8.223-2.299 12.95-2.388-0.845-13.725 0.618-27.549 2.008-41.373 11.365-11.462 19.662-25.983 23.547-42.218-6.249 12.943-5.894 6.046-5.894-0.934 0-18.201-2.411-35.839-6.932-52.612-6.625-0.271-135.354-30.479-153.274-74.071-1.303-11.369-2.047-24.546-2.048-37.896l440.973 0.521c-1.243 4.608-3.072 36.571-5.412 40.594-30.427 53.174-146.284 70.582-153.232 72.41zM770.476 649.292v165.739l-26.697 26.112h-29.842v-219.426c0.246-15.202 12.627-27.431 27.864-27.431 0.13 0 0.259 0.001 0.389 0.003l225.257-0v29.257l-26.624 25.892h-170.347zM785.982 877.715c-11.717 11.314-27.692 18.285-45.295 18.285-0.019 0-0.037-0-0.056-0l-15.649 0c0.025 0 0.054 0 0.083 0 28.003 0 53.4-11.161 71.984-29.278l-11.066 10.773zM1005.408 664.506l-11.044 10.679c18.397-17.737 29.827-42.592 29.842-70.117l-0 15.261c-0.146 17.313-7.388 32.907-18.955 44.038zM797.246 866.743c-18.552 17.878-43.827 28.892-71.674 28.892-0.13 0-0.261-0-0.391-0.001l-579.629 0c-0.636 0.010-1.388 0.016-2.14 0.016-78.398 0-142.104-62.898-143.411-140.984l-0.002-741.196c1.106-78.366 64.893-141.469 143.418-141.469 0.673 0 1.346 0.005 2.017 0.014l733.219-0.001c0.569-0.008 1.242-0.013 1.915-0.013 78.525 0 142.312 63.103 143.417 141.365l0.001 591.676c-0.057 27.538-11.505 52.392-29.881 70.108l-197.444 191.96zM964.741 592.534v-522.525c-1.107-77.881-64.5-140.591-142.54-140.591-0.648 0-1.294 0.004-1.94 0.013l-644.721-0.001c-0.481-0.007-1.049-0.011-1.618-0.011-62.87 0-113.931 50.556-114.75 113.231l-0.001 654.551c1.106 77.841 64.467 140.518 142.467 140.518 0.673 0 1.346-0.005 2.017-0.014l538.369 0.001 222.205-216.28v-28.891z"  horiz-adv-x="1024" />

    
    <glyph glyph-name="handle" unicode="&#58882;" d="M898.56 295.54176c-67.4304 45.1328-137.89184 52.32128-210.51392 16.3584-48.91648-24.23296-81.57184-64.23552-98.09408-116.19328-12.78976-40.22784-12.48768-81.17248 0.4864-121.53344 12.90752-40.14592 36.60288-72.91904 70.41536-98.03776 33.81248-25.13408 71.97184-38.25664 114.23232-39.55712h-6.10304c-180.1728 0-360.35072-0.06144-540.52352 0.08704-19.47648 0.02048-38.47168 3.45088-56.14592 12.26752-20.90496 10.43456-37.5552 25.46688-49.60256 45.57312-9.09824 15.18592-15.04768 31.36-16.1536 49.16224-0.2816 4.42368-0.9728 8.84224-0.9728 13.2608-0.04608 212.48512-0.17408 424.96 0.13312 637.44 0.03584 25.96352 9.36448 49.32608 25.56416 69.83168 10.84928 13.74208 23.97696 24.81152 39.52128 32.60928 12.3904 6.21568 25.49248 10.96704 39.62368 11.5456 11.84768 0.49664 23.70048 1.01888 35.55328 1.024 178.79552 0.06656 357.58592 0.11776 536.38656-0.03584 25.49248-0.0256 48.59904-8.20736 68.91008-23.70048 20.54144-15.68256 35.42528-35.56352 42.12224-60.73344 2.67776-10.07104 4.92544-20.63872 4.95616-30.98112 0.3328-130.59584 0.21504-261.1968 0.21504-391.79264-0.01024-2.04288-0.01024-4.0704-0.01024-6.59456zM502.08768 433.12128c79.27808 0 158.57152 0.10752 237.85472-0.12288 11.53024-0.04096 19.8144 9.25184 19.71712 20.01408-0.10752 11.13088-9.39008 19.49184-21.77024 19.49184-157.18912 0.01024-314.37824 0.01024-471.56224-0.04096-2.33984 0-4.70528-0.49664-6.99904-1.00352-8.68352-1.92512-16.00512-11.4432-14.79168-19.92704 1.49504-10.47552 7.71584-18.47296 19.18464-18.4576 79.45216 0.08192 158.90944 0.04608 238.36672 0.04608z m0.09216 196.95616c-79.46752 0-158.93504-0.02048-238.40256 0.03584-7.30624 0.00512-12.93312-2.87744-16.41984-9.18016-3.65568-6.62016-3.5584-13.5168 0.08192-20.21376 4.64896-8.56576 12.86144-9.97376 21.37088-9.97888 154.27584-0.07168 308.54144-0.06144 462.80704-0.01024 3.72736 0 7.4496 0.68096 11.17696 0.9728 11.43296 0.91648 18.03776 11.76064 16.80384 21.59616-1.15712 9.17504-8.79104 16.98304-20.05504 16.93696-79.11936-0.29696-158.23872-0.15872-237.3632-0.15872z m-119.07072-355.5584c39.7056 0 79.40608 0.20992 119.10656-0.14336 10.8544-0.09728 19.82976 9.14432 19.85024 19.12832 0.02048 11.28448-7.13728 20.31616-20.14208 20.33664-79.06304 0.13824-158.12096 0.09216-237.184 0.0512-11.60704-0.00512-20.16256-8.55552-20.15744-19.8912 0.00512-10.368 9.08288-19.72736 19.93216-19.62496 39.53152 0.36352 79.06304 0.14848 118.59456 0.14336z m-19.9936-158.60224c32.97792 0 65.96096 0.15872 98.93888-0.09216 11.01312-0.08192 19.8656 9.32864 20.08576 19.2512 0.26112 12.10368-10.08128 20.35712-20.05504 20.3264-65.6128-0.17408-131.23072-0.11776-196.84352-0.07168-11.86816 0.01024-20.82304-8.58112-20.6336-19.96288 0.19968-11.648 9.31328-19.48672 20.60288-19.46624 32.63488 0.04608 65.26976 0.01536 97.90464 0.01536zM938.97216 140.70784c0-88.71936-73.18016-165.5808-168.83712-162.53952-82.4576 2.62144-159.63648 71.9616-156.40576 169.27232 2.71872 81.9968 71.84896 159.15008 169.25696 155.82208 83.28704-2.85184 155.45344-71.63392 155.98592-162.55488z m-142.49984 0.04096c0 34.32448 0.18944 67.80416-0.08704 101.27872-0.11776 13.9776-9.12896 20.79232-20.70528 20.70016-11.5712-0.09216-19.56352-8.6528-19.584-20.80768-0.0768-40.57088-0.04096-81.14176-0.0256-121.70752 0.00512-11.3408 8.448-19.85024 19.72224-19.86048 27.62752-0.02048 55.27552-0.01024 82.90816 0 1.408 0 2.90304-0.1536 4.21888 0.24064 10.48576 3.10784 16.43008 13.13792 14.26944 24.7808-1.54112 8.30976-9.344 15.5136-20.22912 15.42144-18.06848-0.14848-36.1472-0.04096-54.21056-0.04096l-6.27712-0.00512z"  horiz-adv-x="1024" />

    
    <glyph glyph-name="shuaxin-" unicode="&#58908;" d="M230.513 123.751L128.5 21.738v256h256L266.749 159.987c60.855-66.603 148.424-108.382 245.751-108.382 183.8 0 332.8 149 332.8 332.8h51.2c0-212.077-171.923-384-384-384-111.465 0-211.838 47.493-281.987 123.346z m563.974 521.308L896.5 747.072v-256h-256l117.751 117.751C697.396 675.426 609.827 717.205 512.5 717.205c-183.8 0-332.8-149-332.8-332.8h-51.2c0 212.077 171.923 384 384 384 111.465 0 211.838-47.492 281.987-123.346z"  horiz-adv-x="1024" />

    


  </font>
</defs>
</svg>
